# xmcd
#
# Track frame offsets:
#	150
#	3267
#	14898
#	24311
#	33737
#	40853
#	53491
#	62518
#	71164
#	82391
#	93420
#	102881
#	117102
#	129139
#	135160
#	148201
#	161142
#
# Disc length: 2324 seconds
#
# Revision: 0
# Processed by: cddbd v1.5.2PL0 Copyright (c) Steve Scherf et al.
# Submitted via: EasyCDDAExtractor 2010.6.0.0
#
DISCID=e3091211
DTITLE=K.V.N and LOBO - Mac Shit
DYEAR=2012
DGENRE=hip-Hop
TTITLE0=Return of the Dead End Kidz
TTITLE1=Hellsinki Shitty
TTITLE2=Boom!
TTITLE3=Smack, Crack and MAC-11
TTITLE4=TTB (Test Tube Brotherz)
TTITLE5=Fish-n-Chicks
TTITLE6=Get Up
TTITLE7=Criminal Mastermind
TTITLE8=Get Down
TTITLE9=Delhi
TTITLE10=Gangster Frontin
TTITLE11=Bless (Jamaican Movie)
TTITLE12=That Ain’t Shit
TTITLE13=Whuttaffnow?!
TTITLE14=Banger
TTITLE15=Cagney
TTITLE16=Mac Shit
EXTD=
EXTT0=
EXTT1=
EXTT2=
EXTT3=
EXTT4=
EXTT5=
EXTT6=
EXTT7=
EXTT8=
EXTT9=
EXTT10=
EXTT11=
EXTT12=
EXTT13=
EXTT14=
EXTT15=
EXTT16=
PLAYORDER=
